<svg width="18" height="18" fill="none" xmlns="http://www.w3.org/2000/svg"><path d="M9 6.679a2.321 2.321 0 100 4.643 2.321 2.321 0 000-4.643z" fill="#29CDB5"/><path fill-rule="evenodd" clip-rule="evenodd" d="M5.264 2.63a33.908 33.908 0 017.472 0 2.957 2.957 0 012.609 2.58 32.632 32.632 0 010 7.58 2.957 2.957 0 01-2.609 2.58c-2.463.276-5.01.276-7.472 0a2.957 2.957 0 01-2.609-2.58 32.622 32.622 0 010-7.58 2.957 2.957 0 012.609-2.58zm7.308 2.084a.714.714 0 100 1.429.714.714 0 000-1.429zM5.607 9a3.393 3.393 0 116.786 0 3.393 3.393 0 01-6.786 0z" fill="#29CDB5"/></svg>