<svg width="54" height="54" fill="none" xmlns="http://www.w3.org/2000/svg"><g id="Iconly/Bold/Star"><g id="Star"><path id="Star_2" d="M40.317 32.22a2.476 2.476 0 00-.718 2.183l2 11.07a2.43 2.43 0 01-1.012 2.43c-.77.562-1.794.63-2.633.18l-9.965-5.198a2.544 2.544 0 00-1.125-.294h-.61a1.826 1.826 0 00-.607.202l-9.968 5.222a2.628 2.628 0 01-1.597.248 2.5 2.5 0 01-2.003-2.86l2.003-11.07a2.518 2.518 0 00-.718-2.203l-8.125-7.875a2.429 2.429 0 01-.605-2.542 2.526 2.526 0 012-1.688l11.183-1.622a2.502 2.502 0 001.98-1.37L24.724 6.93c.117-.225.268-.432.45-.607l.203-.158c.105-.117.227-.214.362-.292l.245-.09.383-.158h.947c.846.088 1.59.594 1.98 1.35l4.993 10.058a2.5 2.5 0 001.867 1.37l11.183 1.622a2.55 2.55 0 012.047 1.688c.295.902.04 1.892-.652 2.542l-8.415 7.965z" fill="#69B99D"/></g></g></svg>