<svg width="104" height="104" fill="none" xmlns="http://www.w3.org/2000/svg"><g id="Iconly/Bold/Tick Square" filter="url(#filter0_d_40_554)"><g id="Tick Square"><path id="Tick Square_2" fill-rule="evenodd" clip-rule="evenodd" d="M46.227 38.666h11.56c4.52 0 7.546 3.174 7.546 7.894v10.895c0 4.705-3.026 7.878-7.546 7.878h-11.56c-4.52 0-7.56-3.173-7.56-7.878V46.56c0-4.72 3.04-7.894 7.56-7.894zm5.013 17.32l6.333-6.333a1.175 1.175 0 000-1.653 1.175 1.175 0 00-1.653 0l-5.507 5.507-2.333-2.334a1.175 1.175 0 00-1.653 0 1.175 1.175 0 000 1.654l3.173 3.16c.227.226.52.333.813.333.307 0 .6-.107.827-.334z" fill="#69B99D"/></g></g><defs><filter id="filter0_d_40_554" x="-2" y="-2" width="108" height="108" filterUnits="userSpaceOnUse" color-interpolation-filters="sRGB"><feFlood flood-opacity="0" result="BackgroundImageFix"/><feColorMatrix in="SourceAlpha" values="0 0 0 0 0 0 0 0 0 0 0 0 0 0 0 0 0 0 127 0" result="hardAlpha"/><feOffset/><feGaussianBlur stdDeviation="19"/><feColorMatrix values="0 0 0 0 0.411765 0 0 0 0 0.72549 0 0 0 0 0.615686 0 0 0 0.32 0"/><feBlend in2="BackgroundImageFix" result="effect1_dropShadow_40_554"/><feBlend in="SourceGraphic" in2="effect1_dropShadow_40_554" result="shape"/></filter></defs></svg>