<svg width="16" height="12" fill="none" xmlns="http://www.w3.org/2000/svg"><path fill-rule="evenodd" clip-rule="evenodd" d="M4.42.922a45.891 45.891 0 017.16 0l1.6.125c.891.07 1.62.738 1.768 1.62.369 2.207.369 4.46 0 6.666a1.947 1.947 0 01-1.768 1.62l-1.6.125a45.892 45.892 0 01-7.16 0l-1.6-.125a1.947 1.947 0 01-1.768-1.62 20.225 20.225 0 010-6.666 1.947 1.947 0 011.768-1.62l1.6-.125zm2.151 6.843v-3.53c0-.166.182-.269.325-.183l2.94 1.764a.214.214 0 010 .368l-2.94 1.764a.214.214 0 01-.325-.183z" fill="#29CDB5"/></svg>